<?xml version="1.0" standalone="no"?>
<!DOCTYPE svg PUBLIC "-//W3C//DTD SVG 20010904//EN"
 "http://www.w3.org/TR/2001/REC-SVG-20010904/DTD/svg10.dtd">
<svg version="1.0" xmlns="http://www.w3.org/2000/svg"
 width="500.000000pt" height="500.000000pt" viewBox="0 0 500.000000 500.000000"
 preserveAspectRatio="xMidYMid meet">
<metadata>
Created by potrace 1.15, written by Peter Selinger 2001-2017
</metadata>
<g transform="translate(0.000000,500.000000) scale(0.100000,-0.100000)"
fill="#000000" stroke="none">
<path d="M4127 3880 c-26 -11 -107 -48 -180 -83 -445 -213 -878 -539 -1130
-851 -85 -106 -140 -187 -132 -194 2 -2 21 9 42 25 21 17 57 42 81 57 47 29
56 62 20 69 -13 2 23 5 79 6 l102 1 10 -37 c6 -21 17 -68 27 -105 9 -37 20
-65 25 -62 5 3 9 11 9 18 0 23 81 180 124 241 48 66 185 201 234 231 18 10 32
22 32 27 0 14 -123 -4 -182 -28 l-57 -22 29 41 c56 81 210 217 385 340 117 83
412 269 482 304 23 12 44 26 48 32 8 12 10 13 -48 -10z"/>
<path d="M738 3704 c-57 -17 -131 -88 -149 -142 -19 -53 -16 -150 5 -192 23
-44 72 -97 111 -118 21 -11 67 -18 153 -22 120 -5 125 -6 148 -33 l24 -28 0
-556 c0 -397 3 -567 12 -595 16 -53 79 -122 130 -143 66 -26 164 -31 234 -10
45 13 69 27 104 63 52 54 72 108 70 190 -1 32 -1 281 -1 554 l1 497 24 28 c24
27 27 28 154 33 125 5 132 6 173 35 72 50 103 104 107 185 2 38 -1 84 -8 105
-16 48 -72 110 -124 138 -41 22 -47 22 -581 24 -450 2 -548 0 -587 -13z m1126
-88 c18 -8 46 -31 62 -51 38 -51 41 -133 5 -183 -40 -56 -85 -72 -206 -72
-114 0 -130 -5 -186 -55 l-36 -32 -2 -159 c-1 -87 -5 -162 -7 -166 -3 -4 -16
-8 -30 -8 -25 0 -32 -14 -12 -26 7 -4 8 -3 4 4 -5 8 2 12 19 12 l26 0 -2 -293
c-1 -224 -5 -300 -15 -318 -7 -13 -13 -18 -14 -11 0 24 -48 62 -78 62 -65 0
-100 -92 -50 -135 l23 -20 -30 -25 -30 -25 -26 26 -25 26 23 21 c49 43 15 132
-51 132 -67 0 -102 -86 -53 -133 l22 -22 -27 -26 -27 -27 -16 24 c-19 29 -19
34 0 71 14 27 13 35 -2 76 -14 37 -15 55 -7 85 6 23 7 49 2 62 -12 34 -7 310
6 310 6 0 5 4 -2 9 -10 6 -8 10 10 16 l23 8 -23 4 c-19 4 -21 7 -11 19 9 11 9
21 1 39 -7 15 -12 89 -11 190 0 174 -6 199 -50 239 -13 12 -18 23 -12 30 7 8
-21 12 -97 14 -173 4 -198 9 -242 51 -81 77 -57 213 45 257 45 20 1061 20
1109 0z"/>
<path d="M2870 2621 l0 -220 23 -4 c12 -2 -3 -4 -33 -4 -30 0 -45 2 -32 4 22
4 22 5 22 204 0 109 -2 199 -4 199 -9 0 -64 -108 -96 -187 l-33 -82 18 -61
c13 -42 25 -65 39 -70 15 -6 3 -9 -40 -9 l-60 -1 -18 -74 c-9 -41 -20 -100
-23 -133 l-5 -58 61 67 c34 37 74 76 89 87 l27 19 1 -112 c1 -134 22 -250 74
-409 40 -121 126 -314 135 -305 3 3 1 54 -5 114 -13 140 -13 344 0 475 10 97
42 277 56 313 5 13 -1 16 -28 16 l-34 0 -59 225 c-33 124 -63 225 -67 225 -5
0 -8 -99 -8 -219z"/>
</g>
</svg>
