<?xml version="1.0" encoding="utf-8"?>
<!-- Generator: Adobe Illustrator 16.0.0, SVG Export Plug-In . SVG Version: 6.00 Build 0)  -->
<svg version="1.2" baseProfile="tiny" id="Layer_1" xmlns="http://www.w3.org/2000/svg" xmlns:xlink="http://www.w3.org/1999/xlink"
	 x="0px" y="0px" width="3000px" height="3000px" viewBox="0 0 3000 3000" xml:space="preserve">
<g>
	<g id="Brackets_1_">
		<polygon fill="#E5541A" points="3000,334.239 3000,334.239 2765.218,334.239 1992.392,334.239 1992.392,565.761 2765.218,565.761 
			2765.218,1201.631 3000,1201.631 3000,565.761 3000,565.761 		"/>
		<polygon fill="#757575" points="1007.608,334.239 234.783,334.239 0,334.239 0,565.761 0,1201.631 234.783,1201.631 
			234.783,565.761 1007.608,565.761 		"/>
		<polygon fill="#757575" points="234.783,2430.979 234.783,1798.37 0,1798.37 0,2430.979 0,2430.979 0,2665.761 1007.608,2665.761 
			1007.608,2430.979 		"/>
		<polygon fill="#757575" points="3000,2430.979 3000,1798.37 2765.218,1798.37 2765.218,2430.979 1992.392,2430.979 
			1992.392,2665.761 3000,2665.761 		"/>
	</g>
	<g>
		<polygon fill="#212121" points="2080.435,1384.239 1992.392,1501.631 1992.392,1501.631 1992.392,1615.761 2223.913,1615.761 
			2223.913,1720.108 2165.218,1798.37 1816.305,1798.37 1757.608,1720.108 1757.608,1276.631 1816.305,1198.369 2223.913,1198.369 
			2223.913,1198.369 2396.739,966.848 1698.913,966.848 1526.087,1198.369 1526.087,1798.37 1698.913,2029.892 2282.608,2029.892 
			2458.695,1798.37 2458.695,1798.37 2458.695,1798.37 2458.695,1615.761 2458.695,1380.979 		"/>
		<polygon id="T_1_" fill="#212121" points="1473.913,966.848 541.305,966.848 541.305,1198.369 886.957,1198.369 886.957,1566.848 
			886.957,2033.152 1121.739,2033.152 1121.739,1566.848 1121.739,1198.369 1473.913,1198.369 		"/>
	</g>
</g>
</svg>
